<svg viewBox="0 0 40 40" xmlns="http://www.w3.org/2000/svg"><g fill="none" stroke="#000" stroke-linecap="round" stroke-linejoin="round" stroke-width="1.5"><path d="M28.75 18.75c5.524 0 10 4.477 10 10s-4.476 10-10 10-10-4.476-10-10 4.477-10 10-10zM28.75 23.75v10M28.75 33.75 25 30M28.75 33.75 32.5 30M6.25 11.25h17.5M6.25 18.75h10M6.25 26.25h6.25" stroke-width="2.50005"/><path d="M12.5 33.75H3.75c-1.38 0-2.5-1.12-2.5-2.5V3.75c0-1.38 1.12-2.5 2.5-2.5h17.715c.664 0 1.299.263 1.767.732l4.787 4.786c.468.469.732 1.104.732 1.767V12.5" stroke-width="2.50005"/></g></svg>