<svg width="470" height="470" xmlns="http://www.w3.org/2000/svg"><defs><rect id="a" x="0" y="0" width="470" height="470" rx="20"/></defs><g fill="none" fill-rule="evenodd"><rect width="470" height="470" rx="20" fill="#FFF" fill-rule="nonzero"/><rect class="to-fill" fill="#220BAB" fill-rule="nonzero" width="470" height="470" rx="20"/><g fill="#FFF" fill-rule="nonzero"><path d="M320.83 278.939a26.315 26.315 0 0 0-20.101-9.31c-4.84 0-8.763 3.914-8.763 8.742 0 4.827 3.923 8.74 8.763 8.74a8.833 8.833 0 0 1 6.666 3.143 8.787 8.787 0 0 1 1.948 7.093c-1.02 4.406-5.05 7.455-9.578 7.247h-34.087a4.376 4.376 0 0 1-4.381-4.37V213.39a4.315 4.315 0 0 0-1.793-3.537 4.338 4.338 0 0 0-3.93-.588 61.24 61.24 0 0 1-20.565 3.487 60.579 60.579 0 0 1-30.468-8.094 4.435 4.435 0 0 0-6.266 1.748L183.94 234.99C159.72 238.652 143 259.735 143 287.112c0 11.59 4.381 34.885 24.886 34.885h131.879c13.088.192 24.42-9.026 26.866-21.852a26.072 26.072 0 0 0-5.8-21.206ZM235.491 199.934c22.657 1.273 42.087-16.129 43.509-38.967v-44.139a4.956 4.956 0 0 0-2.657-4.262 4.876 4.876 0 0 0-4.984.286l-17.725 12.772a46.869 46.869 0 0 0-36.268 0l-17.725-12.772a4.859 4.859 0 0 0-4.989-.305A4.939 4.939 0 0 0 192 116.82v44.148c1.422 22.831 20.841 40.23 43.491 38.967Zm17.446-48.379c4.817 0 8.722 3.939 8.722 8.797 0 4.858-3.905 8.796-8.722 8.796-4.818 0-8.723-3.938-8.723-8.796 0-4.858 3.905-8.797 8.723-8.797Zm-34.891 0c4.817 0 8.723 3.939 8.723 8.797 0 4.858-3.906 8.796-8.723 8.796s-8.723-3.938-8.723-8.796c0-4.858 3.906-8.797 8.723-8.797Z"/></g><text fill="#FFF" font-family="Plus Jakarta Sans" font-size="48" font-weight="bold">
                <tspan x="39" y="68">Hobbies</tspan>
            </text><g transform="translate(380 210)"><circle fill="#FFF" fill-rule="nonzero" cx="25" cy="25" r="25"/><g stroke-linecap="round" stroke-linejoin="round" stroke="#6E6E6E" stroke-width="2"><path d="M19 25h12M25 19l6 6-6 6"/></g></g><g transform="translate(40 210)"><circle fill="#FFF" fill-rule="nonzero" cx="25" cy="25" r="25"/><g stroke-linecap="round" stroke-linejoin="round" stroke="#6E6E6E" stroke-width="2"><path d="M31 25H19M25 19l-6 6 6 6"/></g></g><circle fill-opacity=".3" fill="#FFF" fill-rule="nonzero" cx="251" cy="425" r="6"/><circle fill-opacity=".3" fill="#FFF" fill-rule="nonzero" cx="282" cy="425" r="6"/><circle fill-opacity=".3" fill="#FFF" fill-rule="nonzero" cx="220" cy="425" r="6"/><circle fill-opacity=".75" fill="#FFF" fill-rule="nonzero" cx="189" cy="425" r="6"/><text fill="#FFF" font-family="Plus Jakarta Sans" font-size="48" font-weight="bold">
                <tspan x="185" y="375">Cats</tspan>
            </text></g></svg>