<svg width="15" height="15" fill="none" xmlns="http://www.w3.org/2000/svg"><path fill-rule="evenodd" clip-rule="evenodd" d="M10.967 0c-1.03 0-2.064.391-2.852 1.177h-.004L5.504 3.785a4.009 4.009 0 0 0-.391.456 4.42 4.42 0 0 1 3.023-.012l1.51-1.516h.005c.36-.357.837-.538 1.316-.538.48 0 .955.177 1.316.538.363.361.541.838.541 1.316 0 .482-.179.963-.537 1.32h-.004L9.675 7.956v.004a1.854 1.854 0 0 1-1.315.534 1.852 1.852 0 0 1-1.846-1.626 1.548 1.548 0 0 0-.456.106 1.517 1.517 0 0 0-.403.249l-.074.073-.933.933a4.024 4.024 0 0 0 3.711 2.44c1.031 0 2.064-.393 2.852-1.181l.004.004 2.607-2.607-.003-.004A4.03 4.03 0 0 0 15 4.029a4.02 4.02 0 0 0-1.177-2.856A4.002 4.002 0 0 0 10.967 0ZM6.64 4.322A4.018 4.018 0 0 0 3.79 5.5h-.004L1.177 8.107A4.024 4.024 0 0 0 0 10.963 4.024 4.024 0 0 0 4.033 15a4.03 4.03 0 0 0 2.852-1.181h.004l2.603-2.608c.144-.142.274-.293.391-.452a4.397 4.397 0 0 1-2.978.024l-.04-.012-1.516 1.508v.004a1.854 1.854 0 0 1-1.316.537c-.48 0-.953-.18-1.316-.542a1.855 1.855 0 0 1-.542-1.315c0-.478.18-.955.542-1.316L5.32 7.04h.004a1.86 1.86 0 0 1 1.316-.538c.478 0 .955.177 1.316.538.305.302.482.689.53 1.087a1.57 1.57 0 0 0 .456-.11c.146-.058.284-.144.407-.252l.07-.07.932-.932a4.037 4.037 0 0 0-3.711-2.44Z" fill="#1F0A9F"/></svg>