<svg color="#fff" width="470" height="470" xmlns="http://www.w3.org/2000/svg"><g fill="none" fill-rule="evenodd"><rect class="to-fill" fill="#220BAB" width="470" height="470" rx="20"/><text class="to-color" font-family="Plus Jakarta Sans" font-size="40" font-weight="bold" fill="currentColor">
                    <tspan x="120" y="282">I want to</tspan>
                    <tspan x="120" y="332">work in</tspan>
                    <tspan x="120" y="382">Lille, France</tspan>
                </text><path d="m312.014 128.747-73.782-73.782a6.712 6.712 0 0 0-9.485 0l-73.782 73.782c-2.616 2.623-2.616 6.869 0 9.485a6.701 6.701 0 0 0 4.742 1.965h8.385c.925 0 1.677.751 1.677 1.677v65.397a6.71 6.71 0 0 0 6.707 6.708h38.568c.926 0 1.677-.751 1.677-1.677v-31.86c0-9.263 7.505-16.77 16.768-16.77 9.263 0 16.769 7.507 16.769 16.77v31.86c0 .926.751 1.677 1.677 1.677h38.568a6.71 6.71 0 0 0 6.707-6.708v-65.397c0-.926.751-1.677 1.677-1.677h8.384a6.71 6.71 0 0 0 6.708-6.708 6.718 6.718 0 0 0-1.965-4.742Zm-78.525 4.742c-9.263 0-16.768-7.505-16.768-16.768 0-9.263 7.505-16.769 16.768-16.769 9.263 0 16.769 7.506 16.769 16.769 0 9.263-7.506 16.768-16.769 16.768Z" class="to-color" fill="currentColor" fill-rule="nonzero"/><text class="to-color" font-family="Plus Jakarta Sans" font-size="18" font-weight="400" fill="currentColor">
                    <tspan x="215" y="441">Discover my dream job</tspan>
                </text><g color="to-color" stroke="currentColor" stroke-linecap="round" stroke-linejoin="round" stroke-width="2"><path d="M423 436h16M431 428l8 8-8 8"/></g></g></svg>