<svg xmlns="http://www.w3.org/2000/svg" width="140" height="140"><g fill="none" stroke="#000" stroke-linecap="round" stroke-linejoin="round" stroke-width="1.5"><path d="M4.375 100.625a39.392 39.392 0 0 1 54.833-36.213M19.688 28.438a24.063 24.063 0 1 0 48.124 0 24.063 24.063 0 1 0-48.124 0ZM65.625 100.625a35 35 0 1 0 70 0 35 35 0 1 0-70 0ZM100.625 118.125v-17.5" stroke-width="8.749995"/><path d="M100.625 83.125a2.188 2.188 0 1 0 2.188 2.188 2.182 2.182 0 0 0-2.188-2.188" stroke-width="8.749995"/></g></svg>