<svg width="470" height="469" xmlns="http://www.w3.org/2000/svg"><g fill="none" fill-rule="evenodd"><g fill-rule="nonzero"><rect width="470" height="258" rx="20" transform="translate(0 211)" fill="currentColor"/><g fill="#FFF"><path d="M0 184h470v51H0z"/><rect width="470" height="235" rx="20"/></g></g><text transform="translate(271 416)" fill="#FFF" font-family="Plus Jakarta Sans" font-size="18">
                        <tspan x="0" y="18">2 more projects</tspan>
                    </text><g stroke-linecap="round" stroke-linejoin="round" stroke="#FFF" stroke-width="2"><path d="M421 430h16M429 422l8 8-8 8"/></g><g fill="#FFF" font-family="Plus Jakarta Sans" font-size="32" font-weight="bold"><text transform="translate(98 291)">
                        <tspan x="0" y="32">Mobile app</tspan>
                    </text><text transform="translate(98 291)">
                        <tspan x="0" y="74">for a smart watch</tspan>
                    </text></g><g fill="currentColor" fill-rule="nonzero"><path d="M309 68c0-13.531-10.969-24.5-24.5-24.5h-8.804a2.034 2.034 0 0 1-1.96-1.486l-5.733-20.033a4.083 4.083 0 0 0-3.92-2.981h-57.166a4.083 4.083 0 0 0-3.929 2.964l-5.716 20.05a2.025 2.025 0 0 1-1.976 1.486H186.5C172.969 43.5 162 54.469 162 68v98c0 13.53 10.969 24.5 24.5 24.5h8.796a2.034 2.034 0 0 1 1.96 1.478l5.716 20.057a4.083 4.083 0 0 0 3.945 2.965h57.166a4.083 4.083 0 0 0 3.92-2.965l5.717-20.057a2.042 2.042 0 0 1 1.96-1.478h8.82c13.531 0 24.5-10.97 24.5-24.5V68Zm-16.333 98a8.167 8.167 0 0 1-8.167 8.167h-98a8.167 8.167 0 0 1-8.167-8.167V68a8.167 8.167 0 0 1 8.167-8.167h98A8.167 8.167 0 0 1 292.667 68v98Z"/><path d="M227 142a8 8 0 1 0 16 0 8 8 0 0 0-16 0ZM271.553 97.97c-21.254-17.294-51.791-17.294-73.045 0a6.094 6.094 0 0 0 1.504 10.655 6.145 6.145 0 0 0 6.183-1.164c16.782-13.65 40.888-13.65 57.67 0a6.145 6.145 0 0 0 6.15 1.1 6.093 6.093 0 0 0 1.538-10.599v.009Z"/><path d="M257.539 117.085c-13.407-10.78-32.671-10.78-46.078 0a6.021 6.021 0 0 0-2.397 5.717c.322 2.194 1.834 4.04 3.944 4.815a6.24 6.24 0 0 0 6.186-1.094c8.908-7.157 21.704-7.157 30.612 0a6.24 6.24 0 0 0 6.186 1.094c2.11-.775 3.622-2.621 3.944-4.815a6.021 6.021 0 0 0-2.397-5.717Z"/></g></g></svg>