<svg width="40" height="40"><g stroke="#fff" fill="none" stroke-linecap="round" stroke-linejoin="round"><path class="to-stroke" d="M14.167 39.167h-12.5a.834.834 0 0 1-.834-.834v-15c0-.46.374-.833.834-.833H12.5M27.5 22.5h10.833c.46 0 .834.373.834.833v15c0 .46-.374.834-.834.834h-12.5" stroke-width="1.66667"/><path class="to-stroke" d="M31.667 25.833H35c.46 0 .833.374.833.834v1.666c0 .46-.373.834-.833.834h-3.333a.834.834 0 0 1-.834-.834v-1.666c0-.46.374-.834.834-.834zM35.833 35.833h-5v-2.5c0-.46.374-.833.834-.833H35c.46 0 .833.373.833.833v2.5zM5 25.833h3.333c.46 0 .834.374.834.834v1.666c0 .46-.374.834-.834.834H5a.834.834 0 0 1-.833-.834v-1.666c0-.46.373-.834.833-.834zM5 32.5h3.333c.46 0 .834.373.834.833V35c0 .46-.374.833-.834.833H5A.834.834 0 0 1 4.167 35v-1.667c0-.46.373-.833.833-.833zM22.5 31.667a2.5 2.5 0 0 0-5 0v7.5h5v-7.5zM19.167 10.88V5.833M19.167.833h6.666c.46 0 .834.374.834.834V5c0 .46-.374.833-.834.833h-6.666 0v-5h0zM20 15.833a2.5 2.5 0 0 1 0 5 2.5 2.5 0 0 1 0-5z" stroke-width="1.66667"/><path class="to-stroke" d="M27.5 18.333a7.5 7.5 0 0 0-15 0v20.834h15V18.333z" stroke-width="1.66667"/></g></svg>