<svg color="#fff" width="470" height="470" xmlns="http://www.w3.org/2000/svg"><g fill="none" fill-rule="evenodd"><rect class="to-fill" fill="#220BAB" width="470" height="470" rx="20"/><g class="to-color" fill="currentColor"><path d="M292.57 137.366c25.374 7.77 41.924 20.299 41.924 33.52 0 13.18-16.468 25.71-41.68 33.48 5.896 25.791 3.335 46.335-8.092 52.924-2.684 1.546-5.774 2.279-9.19 2.279-11.182 0-25.821-7.893-40.623-21.642-14.8 13.83-29.44 21.804-40.622 21.804-3.416 0-6.506-.732-9.15-2.278-11.466-6.59-14.068-27.174-8.213-53.047-25.374-7.77-41.924-20.3-41.924-33.52 0-13.18 16.468-25.669 41.761-33.48-5.896-25.791-3.334-46.334 8.093-52.924 2.683-1.546 5.773-2.279 9.19-2.279v-.04c11.182 0 25.82 7.892 40.622 21.642C249.467 89.973 264.106 82 275.289 82v.04c3.359.006 6.435.739 9.068 2.279 11.466 6.59 14.069 27.174 8.214 53.047Zm-17.322-46.294c-8.458.021-20.882 6.772-34.117 19.078 5.734 5.98 11.426 12.815 16.916 20.34 9.15.977 17.851 2.482 25.821 4.435.895-4.109 1.627-8.136 2.074-11.96 1.87-15.54-.529-27.622-6.058-30.795-1.26-.691-2.766-1.058-4.636-1.058v-.04Zm-47.048 19.12c-13.256-12.245-25.74-18.957-34.157-18.957v.04c-1.87 0-3.457.325-4.676 1.058-5.49 3.214-7.849 15.296-5.937 30.835.488 3.784 1.18 7.73 2.115 11.798 7.97-1.994 16.672-3.499 25.861-4.475a192.178 192.178 0 0 1 16.794-20.3Zm-4.334 100.572c3.771 4.642 7.583 8.887 11.396 12.696a156.414 156.414 0 0 0 11.273-12.696c-3.73.2-7.542.278-11.396.278-3.812 0-7.584-.119-11.273-.278Zm-35.175 38.81c-5.408-3.15-7.754-15.142-5.925-30.566.438-3.796 1.154-7.793 2.029-11.87 7.793 1.937 16.303 3.432 25.25 4.4 5.368 7.47 10.934 14.253 16.541 20.189-12.963 12.234-25.13 18.936-33.402 18.936-1.789-.04-3.3-.403-4.493-1.09Zm90.388-.87c5.37-3.198 7.677-15.224 5.807-30.692-.437-3.765-1.153-7.692-2.067-11.781-7.797 1.984-16.308 3.482-25.297 4.454a190.602 190.602 0 0 1-16.427 20.204c12.966 12.187 25.177 18.868 33.41 18.868 1.83 0 3.382-.324 4.574-1.053Zm1.915-104.589c-1.473 5.183-3.305 10.526-5.375 15.87-1.632-3.215-3.344-6.43-5.215-9.643-1.832-3.213-3.782-6.347-5.733-9.4 5.653.843 11.108 1.887 16.323 3.173Zm-27.35 59.485c3.388-4.862 6.652-10.092 9.835-15.608a228.887 228.887 0 0 0 8.447-16.301 212.951 212.951 0 0 0-8.488-16.262 225.434 225.434 0 0 0-9.875-15.525c-6.04-.49-12.2-.776-18.362-.776-6.203 0-12.365.286-18.445.817-3.386 4.862-6.65 10.092-9.834 15.608-3.06 5.352-5.917 10.827-8.447 16.301a212.951 212.951 0 0 0 8.488 16.262 225.434 225.434 0 0 0 9.875 15.525c6.04.49 12.2.776 18.363.776 6.202 0 12.364-.286 18.444-.817Zm-48.821-2.81c-5.653-.844-11.107-1.888-16.322-3.174 1.472-5.182 3.304-10.526 5.374-15.869 1.633 3.214 3.345 6.428 5.215 9.642a266.426 266.426 0 0 0 5.733 9.4Zm76.17-3.188a171.402 171.402 0 0 0-5.467-15.855c-1.624 3.188-3.327 6.414-5.15 9.601-1.822 3.227-3.763 6.374-5.705 9.442a176.961 176.961 0 0 0 16.323-3.188Zm-76.17-56.66c-1.941 3.074-3.883 6.227-5.705 9.461a225.517 225.517 0 0 0-5.15 9.581c-2.14-5.349-3.962-10.7-5.467-15.889a191.13 191.13 0 0 1 16.322-3.154Zm-60.755 30.356c0 6.445 9.187 14.572 23.388 20.771 3.49 1.519 7.26 2.915 11.232 4.187 2.246-8.004 5.215-16.337 8.906-24.875-3.73-8.58-6.74-16.954-9.026-24.999-3.891 1.272-7.663 2.627-11.112 4.146-14.201 6.157-23.388 14.326-23.388 20.77Zm157.045 20.812c-3.446 1.519-7.214 2.874-11.101 4.146-2.286-8.045-5.29-16.42-9.018-24.999 3.687-8.538 6.653-16.87 8.897-24.875 3.968 1.272 7.736 2.668 11.262 4.187 14.188 6.199 23.367 14.326 23.367 20.77-.04 6.445-9.219 14.614-23.407 20.771Zm-54.578-62.957c-3.77-4.642-7.583-8.886-11.396-12.695a156.414 156.414 0 0 0-11.273 12.695c3.73-.198 7.542-.277 11.396-.277 3.812 0 7.584.119 11.273.277Z"/><path d="M235.654 188.095c10.016 0 18.136-8.12 18.136-18.136 0-10.017-8.12-18.136-18.136-18.136s-18.136 8.12-18.136 18.136 8.12 18.136 18.136 18.136Z" fill-rule="nonzero"/></g><text class="to-color" font-family="Plus Jakarta Sans" font-size="36" font-weight="bold" fill="currentColor">
                    <tspan x="116" y="336">I mainly write</tspan>
                    <tspan x="116" y="382">React stuff</tspan>
                </text></g></svg>