<svg width="473" height="474" fill="none" xmlns="http://www.w3.org/2000/svg"><path d="m.022 90.931 472.072-.926.704 359.004c.025 12.703-10.252 23.02-22.955 23.045l-426.072.836C11.068 472.915.75 462.638.726 449.935L.022 90.931Z" fill="#fff"/><path d="M.045 23.926C.02 11.224 10.297.906 23 .881L449.072.045C461.775.02 472.092 10.297 472.117 23l.132 67.029-472.072.926-.132-67.029Z" fill="#220bab" class="to-fill"/><path d="M78 315.25c6.213 0 11.25-5.037 11.25-11.25S84.213 292.75 78 292.75 66.75 297.787 66.75 304s5.037 11.25 11.25 11.25Z" stroke="currentColor" stroke-linecap="round" stroke-linejoin="round"/><path d="M75.88 315.05c-1.57-2.2-2.63-6.33-2.63-11s1.06-8.9 2.63-11.05M80.12 315.05c1.57-2.2 2.63-6.33 2.63-11s-1.06-8.9-2.63-11.05" stroke="currentColor" stroke-linecap="round" stroke-linejoin="round"/><path d="M66.75 304h22.5M68.05 309.25h19.9M68.05 298.75h19.9" class="to-fill" stroke="currentColor" stroke-linecap="round" stroke-linejoin="round"/><g clip-path="url(#a)" fill="currentColor"><path d="M77.577 188.162a1.304 1.304 0 0 0 1.842 0l10.09-10.089a.52.52 0 0 0-.293-.884 1.995 1.995 0 0 0-.3-.022H68.084c-.1 0-.201.007-.3.022a.514.514 0 0 0-.42.351.524.524 0 0 0 .127.533l10.087 10.089Z"/><path d="M90.883 179.075a.19.19 0 0 0-.11-.012.195.195 0 0 0-.098.053l-6.458 6.458a.26.26 0 0 0 0 .369l5.253 5.253a.783.783 0 0 1 .01 1.114.784.784 0 0 1-.86.166.776.776 0 0 1-.255-.175l-5.253-5.253a.263.263 0 0 0-.184-.077.263.263 0 0 0-.184.077l-2.218 2.218a2.868 2.868 0 0 1-4.05 0l-2.22-2.216a.26.26 0 0 0-.368 0l-5.254 5.253a.782.782 0 0 1-1.104-1.105l5.253-5.253a.263.263 0 0 0 0-.369l-6.458-6.458a.187.187 0 0 0-.208-.041.19.19 0 0 0-.117.173v12.5a2.084 2.084 0 0 0 2.083 2.083h20.834A2.082 2.082 0 0 0 91 191.75v-12.5a.189.189 0 0 0-.117-.175Z"/></g><text class="to-color" font-family="Plus Jakarta Sans" font-size="36" font-weight="bold" fill="currentColor">
        <tspan x="40" y="64">Contact Me</tspan>
    </text><text class="to-color" font-family="Plus Jakarta Sans" font-size="14" fill="currentColor">
        <tspan x="100" y="150">+33 6 44 13 13 37</tspan>
    </text><text class="to-color" font-family="Plus Jakarta Sans" font-size="14" fill="currentColor">
        <tspan x="100" y="190">devs@welovedevs.com</tspan>
    </text><text class="to-color" font-family="Plus Jakarta Sans" font-size="14" fill="currentColor">
        <tspan x="100" y="233">My linkedin profile</tspan>
    </text><text class="to-color" font-family="Plus Jakarta Sans" font-size="14" fill="currentColor">
        <tspan x="100" y="270">My codingame profile</tspan>
    </text><text class="to-color" font-family="Plus Jakarta Sans" font-size="14" fill="currentColor">
        <tspan x="100" y="310">Portfolio</tspan>
    </text><path d="M83 131H72.5a2.5 2.5 0 0 0-2.5 2.5v19a2.506 2.506 0 0 0 .732 1.768A2.51 2.51 0 0 0 72.5 155H83a2.512 2.512 0 0 0 1.768-.732 2.502 2.502 0 0 0 .732-1.768v-19A2.501 2.501 0 0 0 83 131Zm.5 17.5A1.502 1.502 0 0 1 82 150h-8.5a1.501 1.501 0 0 1-1.5-1.5v-14a1.502 1.502 0 0 1 1.5-1.5H82a1.501 1.501 0 0 1 1.5 1.5v14Z" fill="currentColor"/><path d="M70.98 216.5a2.49 2.49 0 0 1-2.48 2.5 2.49 2.49 0 0 1-2.48-2.5c0-1.38 1.11-2.5 2.48-2.5a2.49 2.49 0 0 1 2.48 2.5ZM71 221h-5v16h5v-16Zm7.982 0h-4.968v16h4.969v-8.399c0-4.67 6.029-5.052 6.029 0V237H90v-10.131c0-7.88-8.922-7.593-11.018-3.714V221Z" fill="#0A66C2"/><g clip-path="url(#b)"><path fill-rule="evenodd" clip-rule="evenodd" d="M66 252h24v24H66v-24Z" fill="#FCD207"/><path fill-rule="evenodd" clip-rule="evenodd" d="M66 270.85c4.742-1.127 7.983-3.263 8.342-7.34.123-1.511.776-2.808 2.489-3.675 2.392-.929 3.522-.601 4.493-.115 1.068.941 1.377 2.303.576 4.28-.368 1.155-3.353 2.579-4.724 2.978-4.523 2.027-6.861 4.958-6.464 9.022H66v-5.15Z" fill="#1F2528"/><path d="M85.201 258.913c1.25 0 2.264-.99 2.264-2.212 0-1.222-1.013-2.212-2.264-2.212-1.25 0-2.264.99-2.264 2.212 0 1.222 1.014 2.212 2.264 2.212Z" fill="#1F2528"/></g><defs><clipPath id="a"><path fill="#fff" transform="translate(66 173)" d="M0 0h25v25H0z"/></clipPath><clipPath id="b"><rect x="66" y="252" width="24" height="24" rx="5" fill="#fff"/></clipPath></defs></svg>