<svg color="#fff" width="470" height="470" xmlns="http://www.w3.org/2000/svg"><g fill="none" fill-rule="evenodd"><rect class="to-fill" fill="#220BAB" width="470" height="470" rx="20"/><text class="to-color" font-family="Plus Jakarta Sans" font-size="40" font-weight="bold" fill="currentColor">
                    <tspan x="115" y="291">Discover my</tspan>
                    <tspan x="115" y="341">favorite</tspan>
                    <tspan x="115" y="391">tracks</tspan>
                </text><text class="to-color" font-family="Plus Jakarta Sans" font-size="18" font-weight="400" fill="currentColor">
                    <tspan x="314" y="441">My playlist</tspan>
                </text><g class="to-color" stroke="currentColor" stroke-linecap="round" stroke-linejoin="round" stroke-width="2"><path d="M423 436h16M431 428l8 8-8 8"/></g><path d="M235.496 53.272c-45.423 0-82.248 36.824-82.248 82.247 0 45.425 36.825 82.245 82.248 82.245 45.428 0 82.249-36.82 82.249-82.245 0-45.42-36.82-82.243-82.25-82.243l.001-.004Zm37.718 118.623a5.124 5.124 0 0 1-7.051 1.7c-19.311-11.796-43.621-14.468-72.25-7.927a5.128 5.128 0 0 1-6.138-3.86 5.12 5.12 0 0 1 3.856-6.138c31.33-7.16 58.204-4.076 79.884 9.173 2.416 1.484 3.182 4.636 1.7 7.052Zm10.067-22.398c-1.856 3.02-5.804 3.973-8.82 2.117-22.107-13.592-55.808-17.527-81.957-9.59-3.392 1.025-6.973-.887-8.003-4.272a6.422 6.422 0 0 1 4.276-7.998c29.87-9.063 67.004-4.673 92.393 10.929 3.015 1.856 3.967 5.804 2.111 8.815Zm.865-23.32c-26.509-15.744-70.243-17.192-95.552-9.51-4.064 1.232-8.362-1.062-9.594-5.126a7.695 7.695 0 0 1 5.128-9.597c29.053-8.82 77.35-7.116 107.869 11.002a7.683 7.683 0 0 1 2.69 10.541c-2.16 3.656-6.894 4.861-10.538 2.69h-.003Z" class="to-color" fill="currentColor" fill-rule="nonzero"/></g></svg>