<svg xmlns="http://www.w3.org/2000/svg" height="1024" width="1024"><path d="M512 1024C229.236 1024 0 794.764 0 512S229.236 0 512 0s512 229.236 512 512-229.236 512-512 512zM382.138 267.52s-36.212 2.095-48.989 24.483c-12.8 22.365-54.318 137.379-54.318 137.379s13.847 6.377 37.282-10.66c23.436-17.035 30.883-46.847 30.883-46.847l42.59-2.118 1.07 121.39s-73.495-1.07-88.413 0c-14.895 1.048-23.412 40.449-23.412 40.449h111.825s-9.588 67.095-38.353 116.084c-28.742 48.99-83.06 87.32-83.06 87.32s39.423 15.964 77.73-6.4c38.354-22.343 66.63-120.693 66.63-120.693l89.926 110.057s8.192-52.387-1.466-67.189c-9.659-14.778-62.208-74.286-62.208-74.286l-22.947 20.247 16.337-65.117H531.2s0-38.354-19.153-40.495c-19.177-2.094-78.802 0-78.802 0V371.898h88.39s-1.07-39.4-18.106-39.4H359.773l22.342-64.955zm169.984 61.184v358.563h36.003l13.103 45.01 63.348-45.01h89.065V328.704H552.122z" fill="#0f84fd"/><path d="M594.781 368.64h117.9v277.876H670.79l-53.365 40.262-11.636-40.262h-11.008V368.64z" fill="#0f84fd"/></svg>